<svg width="192" height="48" viewBox="0 0 192 48" fill="none" xmlns="http://www.w3.org/2000/svg">
<path d="M184.281 33.68C182.98 33.68 181.828 33.392 180.825 32.816C179.844 32.2186 179.076 31.4186 178.521 30.416V40.176H174.233V16.592H177.977V19.472C178.617 18.4906 179.428 17.7226 180.409 17.168C181.391 16.592 182.511 16.304 183.769 16.304C184.9 16.304 185.935 16.528 186.873 16.976C187.833 17.424 188.665 18.0533 189.369 18.864C190.073 19.6533 190.617 20.5706 191.001 21.616C191.407 22.64 191.609 23.7493 191.609 24.944C191.609 26.5653 191.289 28.0373 190.649 29.36C190.031 30.6826 189.167 31.7386 188.057 32.528C186.969 33.296 185.711 33.68 184.281 33.68ZM182.841 30.032C183.503 30.032 184.1 29.8933 184.633 29.616C185.167 29.3386 185.625 28.9653 186.009 28.496C186.415 28.0053 186.713 27.4613 186.905 26.864C187.119 26.2453 187.225 25.6053 187.225 24.944C187.225 24.24 187.108 23.5893 186.873 22.992C186.66 22.3946 186.34 21.872 185.913 21.424C185.487 20.9546 184.985 20.592 184.409 20.336C183.855 20.08 183.247 19.952 182.585 19.952C182.18 19.952 181.764 20.0266 181.337 20.176C180.932 20.304 180.537 20.496 180.153 20.752C179.769 21.008 179.428 21.3066 179.129 21.648C178.852 21.9893 178.649 22.3626 178.521 22.768V26.704C178.777 27.3226 179.119 27.888 179.545 28.4C179.993 28.912 180.505 29.3173 181.081 29.616C181.657 29.8933 182.244 30.032 182.841 30.032Z" fill="#202020"/>
<path d="M164 33.68C162.699 33.68 161.547 33.392 160.544 32.816C159.563 32.2186 158.795 31.4186 158.24 30.416V40.176H153.952V16.592H157.696V19.472C158.336 18.4906 159.147 17.7226 160.128 17.168C161.109 16.592 162.229 16.304 163.488 16.304C164.619 16.304 165.653 16.528 166.592 16.976C167.552 17.424 168.384 18.0533 169.088 18.864C169.792 19.6533 170.336 20.5706 170.72 21.616C171.125 22.64 171.328 23.7493 171.328 24.944C171.328 26.5653 171.008 28.0373 170.368 29.36C169.749 30.6826 168.885 31.7386 167.776 32.528C166.688 33.296 165.429 33.68 164 33.68ZM162.56 30.032C163.221 30.032 163.819 29.8933 164.352 29.616C164.885 29.3386 165.344 28.9653 165.728 28.496C166.133 28.0053 166.432 27.4613 166.624 26.864C166.837 26.2453 166.944 25.6053 166.944 24.944C166.944 24.24 166.827 23.5893 166.592 22.992C166.379 22.3946 166.059 21.872 165.632 21.424C165.205 20.9546 164.704 20.592 164.128 20.336C163.573 20.08 162.965 19.952 162.304 19.952C161.899 19.952 161.483 20.0266 161.056 20.176C160.651 20.304 160.256 20.496 159.872 20.752C159.488 21.008 159.147 21.3066 158.848 21.648C158.571 21.9893 158.368 22.3626 158.24 22.768V26.704C158.496 27.3226 158.837 27.888 159.264 28.4C159.712 28.912 160.224 29.3173 160.8 29.616C161.376 29.8933 161.963 30.032 162.56 30.032Z" fill="#202020"/>
<path d="M139.044 10.64H143.524L151.876 33.36H147.332L145.22 27.696H137.284L135.204 33.36H130.66L139.044 10.64ZM144.42 24.592L141.284 15.216L138.02 24.592H144.42Z" fill="#202020"/>
<path d="M131.499 20.304C130.197 20.304 129.035 20.56 128.011 21.072C126.987 21.5627 126.251 22.2774 125.803 23.216V33.36H121.515V16.592H125.451V20.176C126.048 19.024 126.805 18.1174 127.723 17.456C128.64 16.7947 129.611 16.432 130.635 16.368C130.869 16.368 131.051 16.368 131.179 16.368C131.307 16.368 131.413 16.3787 131.499 16.4V20.304Z" fill="#F5F4F4"/>
<path d="M110.135 33.68C108.791 33.68 107.575 33.456 106.487 33.008C105.399 32.5386 104.471 31.9093 103.703 31.12C102.935 30.3093 102.337 29.392 101.911 28.368C101.505 27.3226 101.303 26.224 101.303 25.072C101.303 23.472 101.655 22.0106 102.359 20.688C103.084 19.3653 104.108 18.3093 105.431 17.52C106.775 16.7093 108.353 16.304 110.167 16.304C112.001 16.304 113.569 16.7093 114.871 17.52C116.172 18.3093 117.164 19.3653 117.847 20.688C118.551 21.9893 118.903 23.3973 118.903 24.912C118.903 25.168 118.892 25.4346 118.871 25.712C118.849 25.968 118.828 26.1813 118.807 26.352H105.847C105.932 27.2053 106.177 27.952 106.583 28.592C107.009 29.232 107.543 29.7226 108.183 30.064C108.844 30.384 109.548 30.544 110.295 30.544C111.148 30.544 111.948 30.3413 112.695 29.936C113.463 29.5093 113.985 28.9546 114.263 28.272L117.943 29.296C117.537 30.1493 116.951 30.9066 116.183 31.568C115.436 32.2293 114.551 32.752 113.527 33.136C112.503 33.4986 111.372 33.68 110.135 33.68ZM105.751 23.632H114.519C114.433 22.7786 114.188 22.0426 113.783 21.424C113.399 20.784 112.887 20.2933 112.247 19.952C111.607 19.5893 110.892 19.408 110.103 19.408C109.335 19.408 108.631 19.5893 107.991 19.952C107.372 20.2933 106.86 20.784 106.455 21.424C106.071 22.0426 105.836 22.7786 105.751 23.632Z" fill="#F5F4F4"/>
<path d="M98.6299 33.36H94.3419V23.952C94.3419 22.6507 94.0859 21.68 93.5739 21.04C93.0832 20.4 92.4006 20.08 91.5259 20.08C91.0139 20.08 90.4699 20.2293 89.8939 20.528C89.3179 20.8267 88.7952 21.2427 88.3259 21.776C87.8779 22.288 87.5472 22.8853 87.3339 23.568V33.36H83.0459V10H87.3339V19.696C87.9526 18.6293 88.7952 17.7973 89.8619 17.2C90.9286 16.6027 92.0912 16.304 93.3499 16.304C94.4379 16.304 95.3232 16.496 96.0059 16.88C96.6886 17.2427 97.2219 17.744 97.6059 18.384C97.9899 19.0027 98.2566 19.7067 98.4059 20.496C98.5552 21.264 98.6299 22.064 98.6299 22.896V33.36Z" fill="#F5F4F4"/>
<path d="M80.8126 32.496C80.4499 32.6453 80.0126 32.816 79.5006 33.008C78.9886 33.2 78.4339 33.3493 77.8366 33.456C77.2606 33.584 76.6739 33.648 76.0766 33.648C75.2873 33.648 74.5619 33.5093 73.9006 33.232C73.2393 32.9546 72.7059 32.5173 72.3006 31.92C71.9166 31.3013 71.7246 30.5013 71.7246 29.52V19.888H69.5166V16.592H71.7246V11.152H76.0126V16.592H79.5326V19.888H76.0126V28.08C76.0339 28.656 76.1939 29.072 76.4926 29.328C76.7913 29.584 77.1646 29.712 77.6126 29.712C78.0606 29.712 78.4979 29.6373 78.9246 29.488C79.3513 29.3386 79.6926 29.2106 79.9486 29.104L80.8126 32.496Z" fill="#F5F4F4"/>
<path d="M51.3936 28.4C51.3936 27.312 51.6922 26.3626 52.2896 25.552C52.9082 24.72 53.7616 24.08 54.8496 23.632C55.9376 23.184 57.1856 22.96 58.5936 22.96C59.2976 22.96 60.0122 23.0133 60.7376 23.12C61.4629 23.2266 62.0922 23.3973 62.6256 23.632V22.736C62.6256 21.6693 62.3056 20.848 61.6656 20.272C61.0469 19.696 60.1189 19.408 58.8816 19.408C57.9642 19.408 57.0896 19.568 56.2576 19.888C55.4256 20.208 54.5509 20.6773 53.6336 21.296L52.2576 18.48C53.3669 17.7546 54.4976 17.2106 55.6496 16.848C56.8229 16.4853 58.0496 16.304 59.3296 16.304C61.7189 16.304 63.5749 16.9013 64.8976 18.096C66.2416 19.2906 66.9136 20.9973 66.9136 23.216V28.56C66.9136 29.008 66.9882 29.328 67.1376 29.52C67.3082 29.712 67.5749 29.8293 67.9376 29.872V33.36C67.5536 33.424 67.2016 33.4773 66.8816 33.52C66.5829 33.5626 66.3269 33.584 66.1136 33.584C65.2602 33.584 64.6096 33.392 64.1616 33.008C63.7349 32.624 63.4682 32.1546 63.3616 31.6L63.2656 30.736C62.5402 31.6746 61.6336 32.4 60.5456 32.912C59.4576 33.424 58.3482 33.68 57.2176 33.68C56.1082 33.68 55.1056 33.456 54.2096 33.008C53.3349 32.5386 52.6416 31.9093 52.1296 31.12C51.6389 30.3093 51.3936 29.4026 51.3936 28.4ZM61.8256 29.264C62.0602 29.008 62.2522 28.752 62.4016 28.496C62.5509 28.24 62.6256 28.0053 62.6256 27.792V26.096C62.1136 25.8826 61.5589 25.7226 60.9616 25.616C60.3642 25.488 59.7989 25.424 59.2656 25.424C58.1562 25.424 57.2389 25.6693 56.5136 26.16C55.8096 26.6293 55.4576 27.2586 55.4576 28.048C55.4576 28.4746 55.5749 28.88 55.8096 29.264C56.0442 29.648 56.3856 29.9573 56.8336 30.192C57.2816 30.4266 57.8149 30.544 58.4336 30.544C59.0736 30.544 59.7029 30.4266 60.3216 30.192C60.9402 29.936 61.4416 29.6266 61.8256 29.264Z" fill="#F5F4F4"/>
<path d="M41.166 33.68C39.822 33.68 38.606 33.456 37.518 33.008C36.43 32.5386 35.502 31.9093 34.734 31.12C33.966 30.3093 33.3687 29.392 32.942 28.368C32.5367 27.3226 32.334 26.224 32.334 25.072C32.334 23.472 32.686 22.0106 33.39 20.688C34.1153 19.3653 35.1393 18.3093 36.462 17.52C37.806 16.7093 39.3847 16.304 41.198 16.304C43.0327 16.304 44.6007 16.7093 45.902 17.52C47.2033 18.3093 48.1953 19.3653 48.878 20.688C49.582 21.9893 49.934 23.3973 49.934 24.912C49.934 25.168 49.9233 25.4346 49.902 25.712C49.8807 25.968 49.8593 26.1813 49.838 26.352H36.878C36.9633 27.2053 37.2087 27.952 37.614 28.592C38.0406 29.232 38.574 29.7226 39.214 30.064C39.8753 30.384 40.5793 30.544 41.326 30.544C42.1793 30.544 42.9793 30.3413 43.726 29.936C44.494 29.5093 45.0167 28.9546 45.294 28.272L48.974 29.296C48.5687 30.1493 47.982 30.9066 47.214 31.568C46.4673 32.2293 45.582 32.752 44.558 33.136C43.534 33.4986 42.4033 33.68 41.166 33.68ZM36.782 23.632H45.55C45.4647 22.7786 45.2193 22.0426 44.814 21.424C44.43 20.784 43.918 20.2933 43.278 19.952C42.638 19.5893 41.9233 19.408 41.134 19.408C40.366 19.408 39.662 19.5893 39.022 19.952C38.4033 20.2933 37.8913 20.784 37.486 21.424C37.102 22.0426 36.8673 22.7786 36.782 23.632Z" fill="#F5F4F4"/>
<path d="M10.144 10.704H14.24L16.832 18.224L19.456 10.704H23.52L19.616 21.04L22.496 28.272L28.928 10.64H33.728L24.64 33.36H20.832L16.832 23.824L12.864 33.36H9.056L0 10.64H4.736L11.2 28.272L14.016 21.04L10.144 10.704Z" fill="#F5F4F4"/>
</svg>
